<?xml version="1.0" encoding="utf-8" ?>
<svg baseProfile="full" height="200mm" version="1.1" viewBox="0,0,200,200" width="200mm" xmlns="http://www.w3.org/2000/svg" xmlns:ev="http://www.w3.org/2001/xml-events" xmlns:xlink="http://www.w3.org/1999/xlink"><defs /><rect fill="#1a1a1a" height="200" width="200" x="0" y="0" /><rect fill="#1a1a1a" height="200" width="180" x="10" y="0" /><text alignment-baseline="middle" fill="#e1ed5e" style="dominant-baseline: central; font-size:9.0px; font-family:Arial;" text-anchor="middle" x="100.0" y="100.0">2025</text><line stroke="#e1ed5e" stroke-width="0.3" x1="100.0" x2="100.0" y1="15.0" y2="10.0" /><path d="M 100.0 14.0 a86.0,86.0 0 0,1 42.46469731375804,11.215312516191453" fill="none" id="id49" stroke="none" /><text fill="#e1ed5e" style="font-size:6.75px; font-family:Arial;" text-anchor="middle"><textPath startOffset="22.20632615414155" xlink:href="#id49">January</textPath></text><path d="M 100.0 79.0 l 0.0 -12.247654800619856 a33.247654800619856,33.247654800619856 0 0,0 0.5723037234293163,0.004925998830289934 l -0.21082324415678802 12.245840178398124" fill="#ff7a0b" stroke="none" /><path d="M 101.80526077348638 79.07773832637324 l 1.0578133877335645 -12.259640726190227 a33.305192395835604,33.305192395835604 0 0,0 0.5707477086041097,0.05419937214023376 l -1.2686862234279184 12.239615809534815" fill="#ff7b0b" stroke="none" /><path d="M 102.52436894288641 79.15227682838746 l 1.6197643781364435 -13.376966728174192 a34.47467533884802,34.47467533884802 0 0,0 0.588507778497657,0.07640519993533194 l -1.8497868851419466 13.347103205074722" fill="#ff8b0c" stroke="none" /><path d="M 103.59715602781102 79.31037775812273 l 1.4196428246039465 -8.165304349425426 a29.28779710587773,29.28779710587773 0 0,0 0.4959468353808791,0.09063111415346178 l -1.5599847810877265 8.139657753921226" fill="#ff4106" stroke="none" /><path d="M 104.307194497241 79.44645832069477 l 2.428650901919007 -11.589301938663176 a32.84104153480149,32.84104153480149 0 0,0 0.5522882268757779,0.1207088149980738 l -2.6277818529483126 11.545779625569232" fill="#ff740a" stroke="none" /><path d="M 106.0581310904928 79.89281104454417 l 8.857324297942691 -29.39782758712091 a51.70316694676647,51.70316694676647 0 0,0 0.849937595581119,0.26407974823127106 l -9.362047266234528 29.24100770400712" fill="#97ff23" stroke="none" /><path d="M 107.4271985657038 80.35727306442388 l 4.871850179358419 -12.88459193565491 a34.77489141585001,34.77489141585001 0 0,0 0.5580820877357151,0.21652717971601815 l -5.092915432093801 12.798822052048346" fill="#ff8f0d" stroke="none" /><path d="M 108.76106565485865 80.91482961587045 l 6.947853769191068 -15.135256167780383 a37.653787895322694,37.653787895322694 0 0,0 0.5867209441168113,0.2754733503317881 l -7.207352924607477 15.013417834808592" fill="#ffb711" stroke="none" /><line stroke="#e1ed5e" stroke-width="0.3" x1="143.23703022742887" x2="145.7803849466894" y1="26.81831364943548" y2="22.513508569990506" /><path d="M 143.74570117128098 25.957352633546492 a86.0,86.0 0 0,1 28.547481713284135,27.462654790039103" fill="none" id="id50" stroke="none" /><text fill="#e1ed5e" style="font-size:6.75px; font-family:Arial;" text-anchor="middle"><textPath startOffset="19.985693538727396" xlink:href="#id50">February</textPath></text><path d="M 112.48926042617603 83.11751280151076 l 9.141072622958953 -12.35653964057951 a36.37020756487766,36.37020756487766 0 0,0 0.5000970153792562,0.3766627038852297 l -9.352415792096592 12.197360347188432" fill="#ffa60f" stroke="none" /><path d="M 114.42810811169701 84.74124197986012 l 8.189962298969746 -8.661471895454856 a32.92042691577362,32.92042691577362 0 0,0 0.4083963256662755,0.39287694171897225 l -8.337841868248441 8.519211866973581" fill="#ff750a" stroke="none" /><path d="M 117.2510076193507 88.02491185347247 l 6.520243557601878 -4.526140910837391 a28.93722417443307,28.93722417443307 0 0,0 0.28051956539875517,0.41162784792638224 l -6.5971875886693665 4.413235039640602" fill="#ff3c05" stroke="none" /><line stroke="#e1ed5e" stroke-width="0.3" x1="172.23445277983987" x2="176.4835382374775" y1="55.19839476539836" y2="52.563006222186495" /><path d="M 173.08426987136738 54.67131705675599 a86.0,86.0 0 0,1 12.851231095245387,41.99856678651699" fill="none" id="id51" stroke="none" /><text fill="#e1ed5e" style="font-size:6.75px; font-family:Arial;" text-anchor="middle"><textPath startOffset="22.20632615414155" xlink:href="#id51">March</textPath></text><path d="M 119.04729006885535 91.15688171328212 l 16.64176440294343 -7.726300727448501 a39.347862147237926,39.347862147237926 0 0,0 0.2799275922496652,0.616783343713677 l -16.772294312156443 7.438695374892761" fill="#ffce13" stroke="none" /><path d="M 119.34039704204932 91.81776055985345 l 6.327929253730064 -2.677123546210349 a27.870930004146935,27.870930004146935 0 0,0 0.18312304318500292,0.443446974261977 l -6.373073983801264 2.567802001495069" fill="#ff2c04" stroke="none" /><path d="M 120.08093135843002 93.85539295169968 l 4.259873065567907 -1.3034876518595742 a25.454839906584894,25.454839906584894 0 0,0 0.1246003539220302,0.4200904512711443 l -4.28167931660164 1.2299678138419001" fill="#ff0701" stroke="none" /><path d="M 120.28053869075195 94.5502522615342 l 8.43758701903853 -2.2673323167733206 a29.73691424580396,29.73691424580396 0 0,0 0.12858194725605956,0.4954786946549579 l -8.475365298164892 2.1217571965695123" fill="#ff4706" stroke="none" /><path d="M 120.73433829027371 96.67025291283417 l 4.435471858947798 -0.7122966402774206 a25.492301983979743,25.492301983979743 0 0,0 0.06584795929983543,0.4338557788687355 l -4.447075711686933 0.6358417490166028" fill="#ff0801" stroke="none" /><line stroke="#e1ed5e" stroke-width="0.3" x1="184.98032266829074" x2="189.97916517819016" y1="98.17113171792111" y2="98.06355123074" /><path d="M 185.9800911702706 98.14961562048488 a86.0,86.0 0 0,1 -9.607161424134198,41.387399972396054" fill="none" id="id52" stroke="none" /><text fill="#e1ed5e" style="font-size:6.75px; font-family:Arial;" text-anchor="middle"><textPath startOffset="21.466115282336823" xlink:href="#id52">April</textPath></text><path d="M 120.99513854157772 99.54816195383933 l 8.833962950006281 -0.19011641915493713 a29.8360084684724,29.8360084684724 0 0,0 0.006630687578959011,0.5135540602644646 l -8.835926644702957 0.03802610083000982" fill="#ff4906" stroke="none" /><path d="M 120.99824983174949 100.27111621757518 l 13.46142248382627 0.17380543503574752 a34.462544470393084,34.462544470393084 0 0,0 -0.012764167171707636,0.5931006926374345 l -13.456436253969555 -0.4054959434632968" fill="#ff8b0c" stroke="none" /><path d="M 120.89721153311464 102.0752229133903 l 9.48326652108431 0.9417472731783207 a30.529912477901217,30.529912477901217 0 0,0 -0.05643337798887826,0.5225029922425285 l -9.46565084159438 -1.1048465873056408" fill="#ff5307" stroke="none" /><path d="M 120.8583938346157 102.4346265915055 l 7.899029175756818 0.921987887986856 a28.952655128009255,28.952655128009255 0 0,0 -0.06203932305032951,0.49451444574556813 l -7.88198834345964 -1.0578200880198192" fill="#ff3c05" stroke="none" /><path d="M 120.02730092923936 106.31721596034902 l 12.184378447492852 3.8433211877821343 a33.77615732151821,33.77615732151821 0 0,0 -0.17966945255751943,0.5529657162695717 l -12.116416743919087 -4.0524858040295015" fill="#ff810b" stroke="none" /><path d="M 119.9155931802556 106.66101706037122 l 10.34310871549796 3.4593809477645685 a31.906292424209354,31.906292424209354 0 0,0 -0.17868916855683584,0.519354366371896 l -10.282028715997894 -3.636908017225765" fill="#ff6709" stroke="none" /><path d="M 119.26925614724726 108.34839909993367 l 11.23499509459933 4.867558053034203 a33.24411026474889,33.24411026474889 0 0,0 -0.2320105114035978,0.5231224542288947 l -11.14954349846446 -5.060228843755786" fill="#ff7a0b" stroke="none" /><line stroke="#e1ed5e" stroke-width="0.3" x1="174.80103733775053" x2="179.2010983576182" y1="140.37084112569926" y2="142.7455964860345" /><path d="M 175.68104954172406 140.8457921977663 a86.0,86.0 0 0,1 -30.038265399797805,32.042727171017184" fill="none" id="id53" stroke="none" /><text fill="#e1ed5e" style="font-size:6.75px; font-family:Arial;" text-anchor="middle"><textPath startOffset="22.206326154141568" xlink:href="#id53">May</textPath></text><path d="M 117.55443506779139 111.5257021239791 l 7.66524890649582 5.03276666331039 a30.16977541087369,30.16977541087369 0 0,0 -0.2887633889543619,0.4316620865556609 l -7.577482412130737 -5.163965664071858" fill="#ff4e07" stroke="none" /><path d="M 116.71984013943494 112.70617746262583 l 50.159520418304794 38.11853238787748 a84.0,84.0 0 0,0 -0.8847727311277263,1.1436880235469893 l -49.495940869959 -38.97629840553772" fill="#4dd2ff" stroke="none" /><path d="M 116.498646956653 112.99209946851258 l 23.08679863683174 18.180035313640474 a50.385607962110136,50.385607962110136 0 0,0 -0.5424420690694969,0.676779885445208 l -22.77043865570739 -18.574743032663932" fill="#a6ff21" stroke="none" /><path d="M 115.80600337817218 113.82643327865902 l 45.73682477982138 40.00866892570839 a81.7663618307615,81.7663618307615 0 0,0 -0.9358010220226392,1.0513823686009571 l -45.041364908150406 -40.79002546405022" fill="#4ae8ff" stroke="none" /><path d="M 115.07121518719521 114.62390073753431 l 2.8609333265257955 2.776020676777508 a24.986380601086932,24.986380601086932 0 0,0 -0.3021678856941204,0.3060944728879394 l -2.8127248157761393 -2.8248556436461123" fill="#ff0000" stroke="none" /><path d="M 114.55890576462653 115.13401014063108 l 13.04224848412268 13.557442022525946 a39.8123491280529,39.8123491280529 0 0,0 -0.49796559355532727,0.47085755015176456 l -12.806947056176545 -13.779934209423631" fill="#ffd413" stroke="none" /><path d="M 114.29624159901734 115.38237550388516 l 20.836435919110823 22.419450542332317 a51.6070061330947,51.6070061330947 0 0,0 -0.6559015803613948,0.599150542383765 l -20.447434789282564 -22.774793851302668" fill="#98ff23" stroke="none" /><path d="M 114.0293411484842 115.62618273729858 l 12.960383557429386 14.435554718530224 a40.39991706135277,40.39991706135277 0 0,0 -0.5214622124485373,0.4601297731140219 l -12.70997899207426 -14.656507633416535" fill="#ffdc14" stroke="none" /><path d="M 113.48314897796784 116.09983520530334 l 15.416566484758992 18.40847269742408 a45.011297116790715,45.011297116790715 0 0,0 -0.5982855989641194,0.49234831687126857 l -15.09741075725018 -18.671116133152527" fill="#e7ff1a" stroke="none" /><path d="M 112.92097659922987 116.55440617244103 l 11.023219030458078 14.122991691577019 a38.91564266538621,38.91564266538621 0 0,0 -0.5316085663291518,0.40761477970900833 l -10.778481735635433 -14.310645813113398" fill="#ffc812" stroke="none" /><path d="M 112.63410532772338 116.77436683061366 l 11.0938495058184 14.729361228758505 a39.43983674182072,39.43983674182072 0 0,0 -0.5458004438767249,0.4037701201342465 l -10.83866409152311 -14.918141297632522" fill="#ffcf13" stroke="none" /><path d="M 111.45004920935366 117.60387380957326 l 3.586967347820266 5.514781587008744 a27.578689132854617,27.578689132854617 0 0,0 -0.4001775454510172,0.2554122432520879 l -3.4915080003223187 -5.5757082590846405" fill="#ff2703" stroke="none" /><line stroke="#e1ed5e" stroke-width="0.3" x1="143.8653032363475" x2="146.44561519142675" y1="172.8068346515853" y2="177.08958963109032" /><path d="M 144.38136562736335 173.6633856474863 a86.0,86.0 0 0,1 -40.68145358897372,12.25698825130547" fill="none" id="id54" stroke="none" /><text fill="#e1ed5e" style="font-size:6.75px; font-family:Arial;" text-anchor="middle"><textPath startOffset="21.466115282336833" xlink:href="#id54">June</textPath></text><path d="M 110.5260780823613 118.17145234162733 l 15.107955788090184 26.081271337207106 a51.14105244778139,51.14105244778139 0 0,0 -0.7655358522813195,0.4346912361838022 l -14.656771168887666 -26.337465739185536" fill="#9dff22" stroke="none" /><path d="M 110.21172684928248 118.3499491758327 l 2.4264283191651295 4.360167187453682 a25.98985092869459,25.98985092869459 0 0,0 -0.39278980036676564,0.2141803172657433 l -2.351015706929715 -4.401288156479196" fill="#ff0f01" stroke="none" /><path d="M 108.92500713936063 119.00905698771935 l 2.934939161585586 6.251023098012488 a27.905733679638562,27.905733679638562 0 0,0 -0.43656793406439437,0.2004069262239706 l -2.8269032317537723 -6.3006170945705335" fill="#ff2c04" stroke="none" /><path d="M 108.59647513512805 119.15986991738527 l 6.3408189993519875 14.132451416141915 a36.489743981491586,36.489743981491586 0 0,0 -0.5752857056811201,0.2521883472821319 l -6.096612619013114 -14.239504316718502" fill="#ffa70f" stroke="none" /><path d="M 105.18746579009965 120.34920634021253 l 7.138278401018522 28.001784681343942 a49.897317589541004,49.897317589541004 0 0,0 -0.8341090209491983,0.20500370357765801 l -6.6552160953261135 -28.120509643235632" fill="#acff21" stroke="none" /><path d="M 101.26447882468166 120.96189622390904 l 0.7499698599829993 12.432624468805148 a33.455224043477315,33.455224043477315 0 0,0 -0.5751302406474069,0.02972766406976743 l -0.5358515509221127 -12.443691939637118" fill="#ff7d0b" stroke="none" /><line stroke="#e1ed5e" stroke-width="0.3" x1="102.19456741930631" x2="102.32365962044197" y1="184.97166512339345" y2="189.96999836594603" /><path d="M 102.22038585953345 185.97133177190398 a86.0,86.0 0 0,1 -42.740103519485714,-10.115201625700543" fill="none" id="id55" stroke="none" /><text fill="#e1ed5e" style="font-size:6.75px; font-family:Arial;" text-anchor="middle"><textPath startOffset="22.20632615414155" xlink:href="#id55">July</textPath></text><path d="M 99.45781275523022 120.99299961872073 l -0.3031303638116292 11.7369334548294 a32.7408472837593,32.7408472837593 0 0,0 -0.5632667520262276,-0.019400045831061752 l 0.5051174675124999 -11.729976610572244" fill="#ff730a" stroke="none" /><path d="M 99.09653310690486 120.98055641714683 l -0.21527135868331412 4.9990906367119345 a26.003723508741295,26.003723508741295 0 0,0 -0.44703116439677437,-0.023106405027399333 l 0.30129059149357745 -4.994644424922334" fill="#ff1001" stroke="none" /><path d="M 95.51606077576429 120.51570834832081 l -2.592242804982121 11.860485768317048 a33.14046314686688,33.14046314686688 0 0,0 -0.5562545475742371,-0.1266017240185693 l 2.796017501949221 -11.814107310720793" fill="#ff780b" stroke="none" /><path d="M 93.76903079525671 120.05430185196036 l -12.86020981562544 41.39043558837832 a64.34227906672194,64.34227906672194 0 0,0 -1.0548415852797322,-0.3377269648072148 l 13.570772745996113 -41.1629357769114" fill="#33ff56" stroke="none" /><line stroke="#e1ed5e" stroke-width="0.3" x1="58.666819895761336" x2="56.23545636021788" y1="174.27360380694188" y2="178.64263932499728" /><path d="M 58.180547188652646 175.14741091055294 a86.0,86.0 0 0,1 -31.652253787137756,-30.449443065178592" fill="none" id="id56" stroke="none" /><text fill="#e1ed5e" style="font-size:6.75px; font-family:Arial;" text-anchor="middle"><textPath startOffset="22.20632615414155" xlink:href="#id56">August</textPath></text><path d="M 88.24862548938628 117.40417183066458 l -6.193155872997975 9.172267370969623 a32.06732435558854,32.06732435558854 0 0,0 -0.45481103751794083,-0.31282317879329213 l 6.350123795138806 -9.064303402811229" fill="#ff6909" stroke="none" /><path d="M 86.79598089348748 116.32954008644616 l -3.9199656871201376 4.847860057529753 a27.23441080821529,27.23441080821529 0 0,0 -0.3619970280027749,-0.29789890941408603 l 4.002832843667601 -4.779666029258486" fill="#ff2203" stroke="none" /><path d="M 86.24171649860922 115.8653595955263 l -6.80590157028224 7.848222910464788 a31.388209616517884,31.388209616517884 0 0,0 -0.4051435354822931,-0.3574920648319799 l 6.93998745867112 -7.729907703860519" fill="#ff5f08" stroke="none" /><path d="M 84.67929136418377 114.36230785411682 l -7.822856308582295 7.333490458771655 a31.722740467512057,31.722740467512057 0 0,0 -0.3700285345588727,-0.40159289274050963 l 7.947931251136897 -7.197746311229801" fill="#ff6409" stroke="none" /><path d="M 84.43433777217949 114.09645910891817 l -7.1051380271379045 6.434502188012141 a30.5857083615252,30.5857083615252 0 0,0 -0.35004782532997164,-0.39328244258974454 l 7.214844702116214 -6.311245575681532" fill="#ff5407" stroke="none" /><path d="M 83.28015986056508 112.70617746262583 l -10.48606735016752 7.968846084958931 a34.17042582447563,34.17042582447563 0 0,0 -0.351855695084484,-0.4713682030015774 l 10.621684311947089 -7.787165002448045" fill="#ff870c" stroke="none" /><path d="M 82.85270091963577 112.12312394758628 l -22.379800806706946 15.82249763245144 a48.40815417858,48.40815417858 0 0,0 -0.4751815708727638,-0.6845344935584576 l 22.648843284741844 -15.43492187670597" fill="#beff1f" stroke="none" /><path d="M 82.24976979558568 111.22182372390057 l -15.964734043220346 10.09302015629179 a39.88760940262348,39.88760940262348 0 0,0 -0.3619047633482236,-0.5835057115026341 l 16.136103446236525 -9.81671811342389" fill="#ffd513" stroke="none" /><line stroke="#e1ed5e" stroke-width="0.3" x1="26.63291911575756" x2="22.317208475507996" y1="142.92168965132927" y2="145.44649492493687" /><path d="M 25.769776987707644 143.4266507060508 a86.0,86.0 0 0,1 -11.730757126820373,-40.83630448921669" fill="none" id="id57" stroke="none" /><text fill="#e1ed5e" style="font-size:6.75px; font-family:Arial;" text-anchor="middle"><textPath startOffset="21.46611528233685" xlink:href="#id57">September</textPath></text><path d="M 81.69416730710424 110.29060199501025 l -14.826085025727235 8.334465997995837 a38.00811925704433,38.00811925704433 0 0,0 -0.3156910776575537,-0.5730710046205564 l 14.967352512836305 -8.078024474977457" fill="#ffbc11" stroke="none" /><path d="M 81.35079622478065 109.6543875284942 l -24.452272759718532 12.6585413522293 a48.534565772529845,48.534565772529845 0 0,0 -0.377694442852036,-0.7452269676281557 l 24.666545872356835 -12.235760172898459" fill="#bcff1f" stroke="none" /><path d="M 81.02952815118164 109.00673069616217 l -25.432475575563064 12.074737005557735 a49.15333173276295,49.15333173276295 0 0,0 -0.3563040360294736,-0.7674471953123718 l 25.636554228432367 -11.635169742966536" fill="#b5ff20" stroke="none" /><path d="M 80.58989483394504 108.01547362559985 l -45.4954868687774 18.787527010325164 a70.22205294977846,70.22205294977846 0 0,0 -0.45175313214258855,-1.1212142259731768 l 45.81214261517737 -18.00161341650918" fill="#3bff9c" stroke="none" /><path d="M 80.20201598880116 107.00284435728193 l -11.542032677650885 4.0825903467004965 a33.24279634196914,33.24279634196914 0 0,0 -0.186174174042975,-0.5411092959680153 l 11.610597682637088 -3.883308347643184" fill="#ff7a0b" stroke="none" /><path d="M 80.0844068197444 106.66101706037122 l -21.730543259152935 7.268049616712188 a43.91377436322762,43.91377436322762 0 0,0 -0.2335956611188808,-0.7189335205811519 l 21.852431171288064 -6.892917196153233" fill="#f5ff19" stroke="none" /><path d="M 79.58551787078972 104.9243191809786 l -6.221047240521741 1.500622061259228 a27.399476176964882,27.399476176964882 0 0,0 -0.10664846078592122,-0.4594387778162094 l 6.245956267238217 -1.3933146260944442" fill="#ff2503" stroke="none" /><path d="M 79.4281124754447 104.21870165774334 l -21.545441838236 4.418349608964422 a42.993814522993645,42.993814522993645 0 0,0 -0.1424325027617349,-0.7262602630008762 l 21.6183042739734 -4.046825618895591" fill="#fffd17" stroke="none" /><path d="M 79.23777060512086 103.15116336523772 l -12.109465200230725 1.8379000822040703 a33.2481437021193,33.2481437021193 0 0,0 -0.08100822973597242,-0.5665713700976056 l 12.139307480983296 -1.6291832401260642" fill="#ff7a0b" stroke="none" /><path d="M 79.1416061653843 102.43462659150553 l -43.02424814314778 5.021862154841704 a64.31633673090774,64.31633673090774 0 0,0 -0.11888629370367614,-1.1007394278088158 l 43.10431673835251 -4.280526405148106" fill="#33ff56" stroke="none" /><path d="M 79.10278846688536 102.07522291339032 l -36.33251400296992 3.6080443288119337 a57.51122509112338,57.51122509112338 0 0,0 -0.08934890177132833,-0.985957685722719 l 36.38923750101832 -2.9821052545406483" fill="#56ff2a" stroke="none" /><path d="M 79.04373962182676 101.35467743843564 l -18.333552778538373 1.185137513433585 a39.37181832071065,39.37181832071065 0 0,0 -0.03789752954546184,-0.6766858481546223 l 18.351236658971363 -0.8693799489435252" fill="#ffce13" stroke="none" /><line stroke="#e1ed5e" stroke-width="0.3" x1="15.007084014347285" x2="10.007500721073583" y1="101.09737516637583" y2="101.16192664675087" /><path d="M 14.007167355692545 101.11028546245083 a86.0,86.0 0 0,1 10.666146001902534,-42.60595125391555" fill="none" id="id58" stroke="none" /><text fill="#e1ed5e" style="font-size:6.75px; font-family:Arial;" text-anchor="middle"><textPath startOffset="22.20632615414155" xlink:href="#id58">October</textPath></text><path d="M 79.00175016825051 100.2711162175752 l -21.490899256325708 0.2774769976236326 a42.49269048606412,42.49269048606412 0 0,0 -0.003147904465022832,-0.7314621360160494 l 21.492491458080234 0.09249461659609216" fill="#fff717" stroke="none" /><path d="M 79.01574976396665 99.18683210126434 l -4.186071747545961 -0.16221590614962517 a25.189213610668528,25.189213610668528 0 0,0 0.02051888363400857,-0.43312120322442554 l 4.1826592556784545 0.23424821599705978" fill="#ff0300" stroke="none" /><path d="M 79.54389044137918 95.25157060432595 l -29.96624866689334 -6.955995989373655 a51.76299626776087,51.76299626776087 0 0,0 0.20894305922514214,-0.8662038734309854 l 29.842072807407384 7.470785094464038" fill="#96ff23" stroke="none" /><path d="M 80.2630227832202 92.82701384747504 l -6.436577043001493 -2.339237538353026 a27.84847109151625,27.84847109151625 0 0,0 0.16761518872441544,-0.4491253727525617 l 6.395357265775449 2.4496860481349287" fill="#ff2b04" stroke="none" /><line stroke="#e1ed5e" stroke-width="0.3" x1="26.266209847984243" x2="21.928928074336255" y1="57.711370442889674" y2="55.22380399835377" /><path d="M 25.398753493254645 57.213857153982495 a86.0,86.0 0 0,1 29.58750427330803,-30.492523968695096" fill="none" id="id59" stroke="none" /><text fill="#e1ed5e" style="font-size:6.75px; font-family:Arial;" text-anchor="middle"><textPath startOffset="21.46611528233685" xlink:href="#id59">November</textPath></text><path d="M 82.7489923806493 88.02491185347247 l -12.57907465249501 -8.731984304291172 a36.31276163869306,36.31276163869306 0 0,0 0.3608578616221469,-0.5104078540719378 l 12.426904171068983 8.947218658694895" fill="#ffa50f" stroke="none" /><path d="M 84.5562425177563 85.77008943001954 l -11.493577550462614 -10.590206487006869 a36.62865312002095,36.62865312002095 0 0,0 0.4312285715941902,-0.46000457363403585 l 11.309581656897969 10.786480477518955" fill="#ffa90f" stroke="none" /><path d="M 88.70189139769569 82.29822771554957 l -6.611083920947642 -10.358185271660279 a33.288141956042516,33.288141956042516 0 0,0 0.48565948325930625,-0.3041199238624923 l 6.431805285316094 10.4704495368457" fill="#ff7b0b" stroke="none" /><path d="M 89.00827224532344 82.1063720568725 l -4.335179457801848 -7.057315284359324 a29.282480302071285,29.282480302071285 0 0,0 0.43176031889313055,-0.260130761133933 l 4.213057072691068 7.130892654951876" fill="#ff4106" stroke="none" /><line stroke="#e1ed5e" stroke-width="0.3" x1="56.762969772571076" x2="54.21961505331055" y1="26.818313649435495" y2="22.513508569990535" /><path d="M 56.25429882871897 25.957352633546506 a86.0,86.0 0 0,1 42.265352541879196,-11.944610805530505" fill="none" id="id60" stroke="none" /><text fill="#e1ed5e" style="font-size:6.75px; font-family:Arial;" text-anchor="middle"><textPath startOffset="22.20632615414155" xlink:href="#id60">December</textPath></text><path d="M 89.3179101791058 81.91981866633112 l -3.8544771974365712 -6.523971230782186 a28.577545452561278,28.577545452561278 0 0,0 0.4256737902705714,-0.24657773466671742 l 3.7416066747006798 6.58935312283895" fill="#ff3605" stroke="none" /><path d="M 91.90106846888425 80.62456947434976 l -2.12330108244156 -5.0796666757616995 a26.505580897919984,26.505580897919984 0 0,0 0.42246883202209123,-0.17233564414245262 l 2.035548380831088 5.115463206087729" fill="#ff1702" stroke="none" /><path d="M 92.23578459929587 80.48803036053334 l -8.122603779335847 -20.41262254540812 a42.96933889167776,42.96933889167776 0 0,0 0.6895900283490263,-0.26755021757554054 l 7.770030585987145 20.549415466874212" fill="#fffd17" stroke="none" /><path d="M 92.57280143429618 80.3572730644239 l -5.41036543865668 -14.308804321450223 a36.29751402317917,36.29751402317917 0 0,0 0.5863218231990659,-0.21594727565762828 l 5.163261289685045 14.399814864914175" fill="#ffa50f" stroke="none" /><path d="M 93.25333710446033 80.11325718540243 l -5.036012211022195 -14.844358048181428 a36.6753432132178,36.6753432132178 0 0,0 0.5995845392977592,-0.1976735957056431 l 4.779744849482026 14.928845368146305" fill="#ffaa0f" stroke="none" /><path d="M 93.94186890950719 79.89281104454417 l -2.9772379386861703 -9.881576496827655 a31.32034397712639,31.32034397712639 0 0,0 0.5175459878252467,-0.15108586589162237 l 2.806701733137502 9.931360691637975" fill="#ff5e08" stroke="none" /><path d="M 95.692805502759 79.44645832069477 l -3.2608531099940947 -15.560495433695186 a36.898496191370015,36.898496191370015 0 0,0 0.6227650709700222,-0.12492081456697704 l 2.9925216295569363 15.614320204339373" fill="#ffad10" stroke="none" /><path d="M 96.04723909329186 79.375362276772 l -4.707130275463318 -24.560771303600045 a46.00777004168758,46.00777004168758 0 0,0 0.7790755949523926,-0.1423710852516708 l 4.283659559408032 24.638157870202452" fill="#dbff1b" stroke="none" /><path d="M 96.40284397218896 79.31037775812273 l -3.6699465478927613 -21.108288641565576 a42.42494707204749,42.42494707204749 0 0,0 0.7205590262715683,-0.11889841332278688 l 3.306058315482307 21.168333317827987" fill="#fff617" stroke="none" /><path d="M 96.75951476605007 79.25152402106235 l -2.366270210747538 -15.150971870816365 a36.334639980793156,36.334639980793156 0 0,0 0.6187806829566208,-0.09119218776253259 l 2.1051205473622687 15.189458542739866" fill="#ffa50f" stroke="none" /><path d="M 97.11714578562143 79.19881850522333 l -2.184724077967738 -15.7638363518884 a36.91450771547679,36.91450771547679 0 0,0 0.6301574914467369,-0.08181252803089062 l 1.9130518580131435 15.799107203083429" fill="#ffad10" stroke="none" /><path d="M 98.91598698831166 79.02799685794201 l -0.21865278496669224 -4.230195434830807 a25.235842591177946,25.235842591177946 0 0,0 0.4340074240087557,-0.01868927263668722 l 0.14580452856861248 4.233332433991687" fill="#ff0400" stroke="none" /></svg>