<?xml version="1.0" encoding="utf-8" ?>
<svg baseProfile="full" height="200mm" version="1.1" viewBox="0,0,200,200" width="200mm" xmlns="http://www.w3.org/2000/svg" xmlns:ev="http://www.w3.org/2001/xml-events" xmlns:xlink="http://www.w3.org/1999/xlink"><defs /><rect fill="#1a1a1a" height="200" width="200" x="0" y="0" /><rect fill="#1a1a1a" height="200" width="180" x="10" y="0" /><text alignment-baseline="middle" fill="#e1ed5e" style="dominant-baseline: central; font-size:9.0px; font-family:Arial;" text-anchor="middle" x="100.0" y="100.0">2021</text><line stroke="#e1ed5e" stroke-width="0.3" x1="100.0" x2="100.0" y1="15.0" y2="10.0" /><path d="M 100.0 14.0 a86.0,86.0 0 0,1 42.46469731375804,11.215312516191453" fill="none" id="id1" stroke="none" /><text fill="#e1ed5e" style="font-size:6.75px; font-family:Arial;" text-anchor="middle"><textPath startOffset="22.20632615414155" xlink:href="#id1">January</textPath></text><line stroke="#e1ed5e" stroke-width="0.3" x1="143.23703022742887" x2="145.7803849466894" y1="26.81831364943548" y2="22.513508569990506" /><path d="M 143.74570117128098 25.957352633546492 a86.0,86.0 0 0,1 28.547481713284135,27.462654790039103" fill="none" id="id2" stroke="none" /><text fill="#e1ed5e" style="font-size:6.75px; font-family:Arial;" text-anchor="middle"><textPath startOffset="19.985693538727396" xlink:href="#id2">February</textPath></text><path d="M 114.42810811169701 84.74124197986012 l 18.353137317733022 -19.409757611578414 a47.71284971589124,47.71284971589124 0 0,0 0.5919046117139113,0.5694117675033734 l -18.684525173059352 19.090962757312738" fill="#d5ff1c" stroke="none" /><path d="M 114.68862486808459 84.99185889309783 l 9.288327386569613 -9.490372946185715 a34.279314903179035,34.279314903179035 0 0,0 0.4181492034754873,0.41635353790838425 l -9.450312390212423 9.329083557627213" fill="#ff700a" stroke="none" /><path d="M 114.94478906791727 85.2469230424477 l 12.606457519401946 -12.44474158187432 a38.71424184739831,38.71424184739831 0 0,0 0.46408372269670106,0.4782790703498671 l -12.818805505801757 12.225898315974337" fill="#ffb010" stroke="none" /><path d="M 115.4437574822437 85.77008943001954 l 30.216398351708317 -27.8414528838643 a62.08743394316025,62.08743394316025 0 0,0 0.7174243182923639,0.7921978509836086 l -30.691166310616715 27.317202245611142" fill="#2fff30" stroke="none" /><path d="M 116.15771136456269 86.58626213691792 l 11.500168817806951 -9.547159645491533 a35.946643105880376,35.946643105880376 0 0,0 0.3911362930707061,0.4794868468288056 l -11.662803602954067 9.347788629054627" fill="#ff890c" stroke="none" /><path d="M 116.38621287248628 86.86637796730983 l 13.689211862051927 -10.971963804003078 a38.54361738982291,38.54361738982291 0 0,0 0.41048203563721053,0.5212705001558878 l -13.8760479782831 10.734700909894153" fill="#ffae10" stroke="none" /><path d="M 116.82858285166822 87.43820079747576 l 14.526626673629844 -10.843489851320522 a39.12744203330148,39.12744203330148 0 0,0 0.39823796377249426,0.5431961350368569 l -14.711127249915965 10.59183127261217" fill="#ffb610" stroke="none" /><path d="M 117.04232023915458 87.72973835380427 l 12.268732409664985 -8.833336929550546 a36.11785818993304,36.11785818993304 0 0,0 0.3589210097119999,0.5076683144020258 l -12.418966039180866 8.620842114816726" fill="#ff8b0c" stroke="none" /><path d="M 117.45458315368197 88.32363383020206 l 24.25420000586333 -16.225017689078157 a50.180771356071446,50.180771356071446 0 0,0 0.4740968513037733,0.7220820304510167 l -24.529893492525026 15.805117594649467" fill="#b7ff1f" stroke="none" /><line stroke="#e1ed5e" stroke-width="0.3" x1="172.23445277983987" x2="176.4835382374775" y1="55.19839476539836" y2="52.563006222186495" /><path d="M 173.08426987136738 54.67131705675599 a86.0,86.0 0 0,1 12.851231095245387,41.99856678651699" fill="none" id="id3" stroke="none" /><text fill="#e1ed5e" style="font-size:6.75px; font-family:Arial;" text-anchor="middle"><textPath startOffset="22.20632615414155" xlink:href="#id3">March</textPath></text><path d="M 118.03404312379186 89.2402003453031 l 14.573820030240363 -8.695298256335967 a37.970693622845076,37.970693622845076 0 0,0 0.33005632259531464,0.564173244644301 l -14.721336027306004 8.44314559933777" fill="#ffa60f" stroke="none" /><path d="M 118.3937258080291 89.86733742301442 l 26.455218741013947 -14.573545767765406 a51.20375531088889,51.20375531088889 0 0,0 0.41863190840376857,0.7756613471040651 l -26.702158748636183 14.116003437328882" fill="#aaff21" stroke="none" /><path d="M 118.56541770881063 90.18545643968196 l 23.568682631253054 -12.459502176133011 a47.65936974967324,47.65936974967324 0 0,0 0.37716846066332377,0.7285694156916795 l -23.779660525076494 12.051960038180987" fill="#d6ff1c" stroke="none" /><path d="M 118.89224826269711 90.83032412892265 l 43.064648189620776 -20.902163676332332 a68.86924242191425,68.86924242191425 0 0,0 0.5084577016115968,1.0709415924745875 l -43.41806408507413 20.157779668217206" fill="#39ff86" stroke="none" /><path d="M 119.04729006885535 91.15688171328212 l 13.738799505016276 -6.378536196023878 a36.14728806892581,36.14728806892581 0 0,0 0.25715814693123656,0.56661388915887 l -13.84655996891086 6.141100298022945" fill="#ff8b0c" stroke="none" /><path d="M 119.196687751892 91.48605970444005 l 14.588088362622019 -6.469976224595071 a36.95847468972187,36.95847468972187 0 0,0 0.2529179125217705,0.5837694128264349 l -14.697296984986469 6.2179076671820335" fill="#ff970d" stroke="none" /><path d="M 119.47837535516314 92.15188598940014 l 28.18372265195281 -11.355622046631352 a51.38539739065688,51.38539739065688 0 0,0 0.3234990941398514,0.8232699088529557 l -28.37501529597436 10.868803132882611" fill="#a8ff21" stroke="none" /><path d="M 119.7369772167798 92.82701384747503 l 19.189623744848934 -6.974062131304602 a41.41761989263604,41.41761989263604 0 0,0 0.23775078467845814,0.6721534841509823 l -19.3068276103372 6.642711020727005" fill="#ffd614" stroke="none" /><path d="M 119.85752413597 93.16781622104841 l 13.408278515961374 -4.613255023796121 a35.17970573305989,35.17970573305989 0 0,0 0.1920857268412106,0.5743118741224287 l -13.485701536574355 4.381770046751378" fill="#ff7d0b" stroke="none" /><path d="M 119.97218684219823 93.5106431181261 l 15.598628941612992 -5.068301777358715 a37.401369082015805,37.401369082015805 0 0,0 0.19367589463002757,0.6140055126880486 l -15.683560320011225 4.799046098244247" fill="#ff9d0e" stroke="none" /><path d="M 120.08093135843002 93.85539295169968 l 29.11459093083672 -8.90883582284136 a51.4471141619087,51.4471141619087 0 0,0 0.25183142602215436,0.8490503764387612 l -29.263628253970577 8.40635605965607" fill="#a7ff21" stroke="none" /><path d="M 120.37134235888165 94.90015583598534 l 6.908815701170735 -1.7295808402388766 a28.12202108082142,28.12202108082142 0 0,0 0.1135154751441636,0.47059492968505506 l -6.937563976575719 1.6104006788944154" fill="#ff1202" stroke="none" /><path d="M 120.45610955862082 95.25157060432595 l 27.881285019236884 -6.47201820048509 a49.62259726005544,49.62259726005544 0 0,0 0.18597985409065113,0.8337112189037004 l -27.98855926032957 5.991128812031426" fill="#bdff1f" stroke="none" /><path d="M 120.53481517161879 95.60439243477599 l 44.71880917005891 -9.572345027356022 a66.73184539148724,66.73184539148724 0 0,0 0.23076731415339868,1.1253033791554796 l -44.87695578012731 8.80116599203713" fill="#36ff6c" stroke="none" /><path d="M 120.6074358757038 95.95851677861258 l 18.46482437279282 -3.621279150818137 a39.81657253078344,39.81657253078344 0 0,0 0.12611288087026867,0.6737000524042516 l -18.524422977572947 3.3029010209513223" fill="#ffc011" stroke="none" /><path d="M 120.67395015179393 96.31383870115 l 19.09997216038079 -3.4055213285206967 a40.40119872704598,40.40119872704598 0 0,0 0.11617872302275438,0.685693399780727 l -19.155762744923766 3.0762421404241316" fill="#ffc812" stroke="none" /><path d="M 120.73433829027371 96.67025291283417 l 14.92063471004221 -2.3961189052140512 a36.11180750136927,36.11180750136927 0 0,0 0.09327870162875068,0.6145900978150306 l -14.95966930511026 2.1389296950069383" fill="#ff8b0c" stroke="none" /><path d="M 120.87857604477298 97.74499172005257 l 18.136367028770096 -1.9588336738261884 a39.24184306379085,39.24184306379085 0 0,0 0.0667538775126432,0.6722024366810483 l -18.167398031964968 1.6463557064407053" fill="#ffb811" stroke="none" /><path d="M 120.91429891909075 98.10471618934814 l 27.989954974735188 -2.536489926328188 a49.10465016032165,49.10465016032165 0 0,0 0.06904000680222032,0.842462954911676 l -28.029469465356904 2.0543130542087433" fill="#c4ff1e" stroke="none" /><path d="M 120.94382443527127 98.46500227214037 l 9.537930932270859 -0.6990462680188264 a30.563513588300083,30.563513588300083 0 0,0 0.0339391939860797,0.5250243091218307 l -9.548550717261355 0.5347628946439605" fill="#ff3805" stroke="none" /><path d="M 120.98425023603335 99.18683210126433 l 24.779220213911568 -0.9602280856837395 a45.79781829891613,45.79781829891613 0 0,0 0.023745744709688023,0.7880056635335259 l -24.792077653076902 0.5335522747252146" fill="#eeff19" stroke="none" /><line stroke="#e1ed5e" stroke-width="0.3" x1="184.98032266829074" x2="189.97916517819016" y1="98.17113171792111" y2="98.06355123074" /><path d="M 185.9800911702706 98.14961562048488 a86.0,86.0 0 0,1 -9.607161424134198,41.387399972396054" fill="none" id="id4" stroke="none" /><text fill="#e1ed5e" style="font-size:6.75px; font-family:Arial;" text-anchor="middle"><textPath startOffset="21.466115282336823" xlink:href="#id4">April</textPath></text><path d="M 120.99824983174949 100.27111621757518 l 31.723724637080156 0.40959681401625175 a52.72636875533251,52.72636875533251 0 0,0 -0.01952868528695989,0.9074212687896693 l -31.71197388910819 -0.9556078985960359" fill="#98ff23" stroke="none" /><path d="M 120.9764740272857 100.99374915477107 l 5.957833798749654 0.2822491660930517 a26.964515752790327,26.964515752790327 0 0,0 -0.025954821900694876,0.46344078050005016 l -5.95209262596143 -0.38476166292852515" fill="#ff0000" stroke="none" /><path d="M 120.92983693683757 101.71520430193887 l 19.10341024249489 1.5655282708849036 a40.16745057799807,40.16745057799807 0 0,0 -0.0624037757918005,0.6886204658397516 l -19.073631870426013 -1.8941301252732257" fill="#ffc412" stroke="none" /><path d="M 120.89721153311464 102.0752229133903 l 15.166500144890465 1.5061276748210692 a36.241100590765235,36.241100590765235 0 0,0 -0.06699029123820835,0.6202468976792517 l -15.138327552151205 -1.7669708943851123" fill="#ff8d0d" stroke="none" /><path d="M 120.81339534386255 102.79330883721812 l 14.947990969644884 2.00612896571333 a36.08200873410631,36.08200873410631 0 0,0 -0.0879128675289442,0.6148623907401125 l -14.911244051099338 -2.263136828433852" fill="#ff8b0c" stroke="none" /><path d="M 120.70491114924044 103.5080841355445 l 13.309017927079237 2.2549797153501334 a34.49869962996277,34.49869962996277 0 0,0 -0.10424120124727866,0.5846400153519338 l -13.26823028349277 -2.4837384814352856" fill="#ff730a" stroke="none" /><path d="M 120.5718875245553 104.21870165774334 l 29.927848328846554 6.137339765585045 a51.550663576961384,51.550663576961384 0 0,0 -0.18574431018779153,0.8677355797324804 l -29.81776997993432 -6.651589164733695" fill="#a6ff21" stroke="none" /><path d="M 120.49622156327973 104.57218783832717 l 21.3994490724976 4.773675015860763 a42.925428017794125,42.925428017794125 0 0,0 -0.16708096158872776,0.7197804096092083 l -21.31410754497832 -5.141324082818537" fill="#ffea16" stroke="none" /><path d="M 120.23288151984713 105.62410040840565 l 16.38999633282608 4.555900007559125 a38.01141395266512,38.01141395266512 0 0,0 -0.18065804737363977,0.6288943630168726 l -16.309145648566343 -4.83735184608058" fill="#ffa60f" stroke="none" /><path d="M 119.79798401119884 107.00284435728193 l 36.33127933517466 12.850919282551493 a59.53709880799466,59.53709880799466 0 0,0 -0.35006606061533213,0.963231451422849 l -36.10468901355411 -13.474398530980473" fill="#4aff2c" stroke="none" /><path d="M 119.12269723197855 108.67885076344098 l 22.775224807325888 10.33655319690218 a46.01110147547727,46.01110147547727 0 0,0 -0.33352655008218707,0.7183865169622088 l -22.59392364040387 -10.72705978114322" fill="#ebff1a" stroke="none" /><path d="M 118.81262510543309 109.33194174019688 l 24.31950468603359 12.06361151666004 a48.14717353609584,48.14717353609584 0 0,0 -0.37467976882381554,0.7392787297682666 l -24.108246247423505 -12.480444458131002" fill="#d0ff1d" stroke="none" /><line stroke="#e1ed5e" stroke-width="0.3" x1="174.80103733775053" x2="179.2010983576182" y1="140.37084112569926" y2="142.7455964860345" /><path d="M 175.68104954172406 140.8457921977663 a86.0,86.0 0 0,1 -30.038265399797805,32.042727171017184" fill="none" id="id5" stroke="none" /><text fill="#e1ed5e" style="font-size:6.75px; font-family:Arial;" text-anchor="middle"><textPath startOffset="22.206326154141568" xlink:href="#id5">May</textPath></text><path d="M 118.48025628344425 109.97397251340804 l 13.45964612548871 7.264300799555983 a36.29484030416182,36.29484030416182 0 0,0 -0.3014607792493319,0.5472388795400576 l -13.332608936787869 -7.494910197493845" fill="#ff8e0d" stroke="none" /><path d="M 117.75023020441432 111.22182372390056 l 12.889564444511407 8.148875727718242 a36.249427766149395,36.249427766149395 0 0,0 -0.337974364856046,0.5245437196828733 l -12.74738521627831 -8.369541047322567" fill="#ff8d0d" stroke="none" /><path d="M 117.35343817320211 111.8261652097733 l 13.045761308879605 8.890533794295939 a36.787130178590985,36.787130178590985 0 0,0 -0.361107887767769,0.5202028450283895 l -12.8907925139497 -9.113777901511348" fill="#ff950d" stroke="none" /><path d="M 116.93607887273984 112.41649034213515 l 50.80823661821952 37.24947102640542 a84.0,84.0 0 0,0 -0.8649549332196318,1.15874848196274 l -50.159520418304794 -38.11853238787748" fill="#4dd2ff" stroke="none" /><path d="M 116.0416608686014 113.55231037782055 l 14.953478101772129 12.632992189718777 a40.575469317635125,40.575469317635125 0 0,0 -0.45532920344675043,0.5296507310586932 l -14.7338063887546 -12.888520019938998" fill="#ffca12" stroke="none" /><path d="M 113.48314897796784 116.09983520530334 l 9.806566639925837 11.709735395687021 a36.27372424460753,36.27372424460753 0 0,0 -0.48214666598107714,0.3967738817245266 l -9.60354984540007 -11.876804396268726" fill="#ff8d0d" stroke="none" /><path d="M 111.7513745106137 117.40417183066458 l 9.034032583823457 13.379699138230848 a37.14404205133148,37.14404205133148 0 0,0 -0.5329733171968047,0.35322565249134197 l -8.802384567886687 -13.53322281181351" fill="#ff9a0e" stroke="none" /><path d="M 111.45004920935366 117.60387380957326 l 8.521482549760997 13.101350110698867 a36.62885279119969,36.62885279119969 0 0,0 -0.5314989531248872,0.3392277788869093 l -8.294701794589178 -13.246092318409586" fill="#ff920d" stroke="none" /><line stroke="#e1ed5e" stroke-width="0.3" x1="143.8653032363475" x2="146.44561519142675" y1="172.8068346515853" y2="177.08958963109032" /><path d="M 144.38136562736335 173.6633856474863 a86.0,86.0 0 0,1 -40.68145358897372,12.25698825130547" fill="none" id="id6" stroke="none" /><text fill="#e1ed5e" style="font-size:6.75px; font-family:Arial;" text-anchor="middle"><textPath startOffset="21.466115282336833" xlink:href="#id6">June</textPath></text><path d="M 110.8373102113329 117.98757091392108 l 7.929804163580528 13.161745114276647 a36.36597958237366,36.36597958237366 0 0,0 -0.5389648213124067,0.31842991645443924 l -7.702071471239739 -13.296293603024836" fill="#ff8f0d" stroke="none" /><path d="M 108.2653958097858 119.30500536409082 l 4.922513680429148 11.497229557111535 a33.5066953438121,33.5066953438121 0 0,0 -0.5321637711945173,0.22244449951906803 l -4.723878449737169 -11.580259099650576" fill="#ff6509" stroke="none" /><path d="M 103.41894727170886 120.7198165907248 l 5.209889771238363 31.573449936242348 a53.000401439745346,53.000401439745346 0 0,0 -0.9014210766013596,0.1407834335043756 l -4.6656328310284865 -31.65845167709383" fill="#94ff23" stroke="none" /><line stroke="#e1ed5e" stroke-width="0.3" x1="102.19456741930631" x2="102.32365962044197" y1="184.97166512339345" y2="189.96999836594603" /><path d="M 102.22038585953345 185.97133177190398 a86.0,86.0 0 0,1 -42.740103519485714,-10.115201625700543" fill="none" id="id7" stroke="none" /><text fill="#e1ed5e" style="font-size:6.75px; font-family:Arial;" text-anchor="middle"><textPath startOffset="22.20632615414155" xlink:href="#id7">July</textPath></text><path d="M 99.45781275523022 120.99299961872073 l -0.43875141389187156 16.988057822083643 a37.993722704859266,37.993722704859266 0 0,0 -0.6536361322563183,-0.02251255000760291 l 0.7311078978228329 -16.977988473649944" fill="#ffa60f" stroke="none" /><path d="M 96.22490169976321 120.6578951692458 l -1.7711152087195037 9.691803869607696 a30.852304873962247,30.852304873962247 0 0,0 -0.5215984473982922,-0.09996558385864777 l 1.9376812706894908 -9.65988108740058" fill="#ff3d05" stroke="none" /><line stroke="#e1ed5e" stroke-width="0.3" x1="58.666819895761336" x2="56.23545636021788" y1="174.27360380694188" y2="178.64263932499728" /><path d="M 58.180547188652646 175.14741091055294 a86.0,86.0 0 0,1 -31.652253787137756,-30.449443065178592" fill="none" id="id8" stroke="none" /><text fill="#e1ed5e" style="font-size:6.75px; font-family:Arial;" text-anchor="middle"><textPath startOffset="22.20632615414155" xlink:href="#id8">August</textPath></text><line stroke="#e1ed5e" stroke-width="0.3" x1="26.63291911575756" x2="22.317208475507996" y1="142.92168965132927" y2="145.44649492493687" /><path d="M 25.769776987707644 143.4266507060508 a86.0,86.0 0 0,1 -11.730757126820373,-40.83630448921669" fill="none" id="id9" stroke="none" /><text fill="#e1ed5e" style="font-size:6.75px; font-family:Arial;" text-anchor="middle"><textPath startOffset="21.46611528233685" xlink:href="#id9">September</textPath></text><line stroke="#e1ed5e" stroke-width="0.3" x1="15.007084014347285" x2="10.007500721073583" y1="101.09737516637583" y2="101.16192664675087" /><path d="M 14.007167355692545 101.11028546245083 a86.0,86.0 0 0,1 10.666146001902534,-42.60595125391555" fill="none" id="id10" stroke="none" /><text fill="#e1ed5e" style="font-size:6.75px; font-family:Arial;" text-anchor="middle"><textPath startOffset="22.20632615414155" xlink:href="#id10">October</textPath></text><line stroke="#e1ed5e" stroke-width="0.3" x1="26.266209847984243" x2="21.928928074336255" y1="57.711370442889674" y2="55.22380399835377" /><path d="M 25.398753493254645 57.213857153982495 a86.0,86.0 0 0,1 29.58750427330803,-30.492523968695096" fill="none" id="id11" stroke="none" /><text fill="#e1ed5e" style="font-size:6.75px; font-family:Arial;" text-anchor="middle"><textPath startOffset="21.46611528233685" xlink:href="#id11">November</textPath></text><line stroke="#e1ed5e" stroke-width="0.3" x1="56.762969772571076" x2="54.21961505331055" y1="26.818313649435495" y2="22.513508569990535" /><path d="M 56.25429882871897 25.957352633546506 a86.0,86.0 0 0,1 42.265352541879196,-11.944610805530505" fill="none" id="id12" stroke="none" /><text fill="#e1ed5e" style="font-size:6.75px; font-family:Arial;" text-anchor="middle"><textPath startOffset="22.20632615414155" xlink:href="#id12">December</textPath></text></svg>