<?xml version="1.0" encoding="utf-8" ?>
<svg baseProfile="full" height="200mm" version="1.1" viewBox="0,0,200,200" width="200mm" xmlns="http://www.w3.org/2000/svg" xmlns:ev="http://www.w3.org/2001/xml-events" xmlns:xlink="http://www.w3.org/1999/xlink"><defs /><rect fill="#1a1a1a" height="200" width="200" x="0" y="0" /><rect fill="#1a1a1a" height="200" width="180" x="10" y="0" /><text alignment-baseline="middle" fill="#e1ed5e" style="dominant-baseline: central; font-size:9.0px; font-family:Arial;" text-anchor="middle" x="100.0" y="100.0">2026</text><line stroke="#e1ed5e" stroke-width="0.3" x1="100.0" x2="100.0" y1="15.0" y2="10.0" /><path d="M 100.0 14.0 a86.0,86.0 0 0,1 42.46469731375804,11.215312516191453" fill="none" id="id61" stroke="none" /><text fill="#e1ed5e" style="font-size:6.75px; font-family:Arial;" text-anchor="middle"><textPath startOffset="22.20632615414155" xlink:href="#id61">January</textPath></text><path d="M 100.36148047927253 79.00311137660856 l 0.0647538105805738 -3.7612779296871506 a24.761835286178325,24.761835286178325 0 0,0 0.4261079874341293,0.01100511217440742 l -0.12948843320957087 3.7596060253703834" fill="red" stroke="none" /><path d="M 100.72285384407766 79.0124445844662 l 0.2744923931967302 -7.969694510941739 a28.974420146421792,28.974420146421792 0 0,0 0.4983036886706418,0.021458005043811068 l -0.41163691425670346 7.963788779373734" fill="red" stroke="none" /><path d="M 101.08401301168833 79.027996857942 l 0.19717136957173803 -3.814602350337165 a24.819694705101,24.819694705101 0 0,0 0.42647084694357035,0.025725886129001264 l -0.2628042653549203 3.8106431948278594" fill="red" stroke="none" /><path d="M 101.44485096284872 79.0497635885617 l 2.7562132274386677 -39.964896172629985 a61.059825729079286,61.059825729079286 0 0,0 1.047931439456472,0.08133964836138291 l -3.4437348562574805 39.91153126208014" fill="red" stroke="none" /><path d="M 102.16513564639614 79.11191278185805 l 3.2601243211177304 -31.451960654216588 a52.62047184315142,52.62047184315142 0 0,0 0.900144074432808,0.10114167494647158 l -3.8010350990602637 31.391183025799517" fill="red" stroke="none" /><path d="M 102.52436894288641 79.15227682838746 l 3.7696513672550322 -31.13199771352124 a52.3593933784654,52.3593933784654 0 0,0 0.8938129214496978,0.11604256980677986 l -4.304979017212576 31.062496820550322" fill="red" stroke="none" /><path d="M 103.2404852339499 79.25152402106235 l 6.10683806413384 -39.101422698506234 a60.57543086548537,60.57543086548537 0 0,0 1.028832715012969,0.1697662133560105 l -6.778999985285685 38.990510222210595" fill="red" stroke="none" /><path d="M 103.59715602781102 79.31037775812273 l 2.310943608553515 -13.291764358730976 a34.491162297220555,34.491162297220555 0 0,0 0.5840583615106336,0.106732932358973 l -2.5393970911670496 13.250015945021264" fill="red" stroke="none" /><path d="M 103.95276090670814 79.375362276772 l 5.789809588338719 -30.20995402056971 a51.75976620512833,51.75976620512833 0 0,0 0.8735904657726561,0.17523402912158248 l -6.308966463578501 30.105816035370918" fill="red" stroke="none" /><path d="M 104.66035177308747 79.52364482259891 l 4.159568188879218 -18.276044334671116 a39.74342028661792,39.74342028661792 0 0,0 0.6657520883773952,0.1575620097316415 l -4.473543964219137 18.201736412798606" fill="red" stroke="none" /><path d="M 105.01212808612495 79.60689891045804 l 4.67517469584352 -19.02212165078908 a40.58822019822307,40.58822019822307 0 0,0 0.6770329885491654,0.17259078354950289 l -5.00191657307771 18.93882787107071" fill="red" stroke="none" /><path d="M 106.0581310904928 79.89281104454417 l 16.2036713760369 -53.78065896285885 a77.16865891706804,77.16865891706804 0 0,0 1.2685595155461598,0.3941476165114997 l -17.12701626429378 53.49377121146483" fill="red" stroke="none" /><path d="M 106.74666289553966 80.11325718540242 l 6.733332737931541 -19.847450290258497 a41.95850788543838,41.95850788543838 0 0,0 0.6819616106644361,0.23792301529358129 l -7.07397635265925 19.72860642179271" fill="red" stroke="none" /><path d="M 107.4271985657038 80.35727306442388 l 13.245625813979098 -35.030733142941735 a58.45128659653692,58.45128659653692 0 0,0 0.9380508385934407,0.36394915188009 l -13.846659817572206 34.79754128717109" fill="red" stroke="none" /><path d="M 108.09893153111575 80.62456947434976 l 14.44553928560228 -34.55869971963812 a58.45633900375202,58.45633900375202 0 0,0 0.9250471862410619,0.39605692890575994 l -15.038270229633657 34.30492326276957" fill="red" stroke="none" /><path d="M 109.73455568895987 81.39251694778311 l 13.888689586396977 -26.54805872542053 a50.961560715618084,50.961560715618084 0 0,0 0.7737783843249072,0.4133256152639167 l -14.343613017250195 26.305054383654856" fill="red" stroke="none" /><line stroke="#e1ed5e" stroke-width="0.3" x1="143.23703022742887" x2="145.7803849466894" y1="26.81831364943548" y2="22.513508569990506" /><path d="M 143.74570117128098 25.957352633546492 a86.0,86.0 0 0,1 28.547481713284135,27.462654790039103" fill="none" id="id62" stroke="none" /><text fill="#e1ed5e" style="font-size:6.75px; font-family:Arial;" text-anchor="middle"><textPath startOffset="19.985693538727396" xlink:href="#id62">February</textPath></text><path d="M 111.60114157652 82.49532879139004 l 10.836317326700579 -16.350647103554873 a40.615540622423296,40.615540622423296 0 0,0 0.5794393002199248,0.39124000206979476 l -11.116161321327045 16.161695189186407" fill="red" stroke="none" /><path d="M 111.90073688211348 82.69761687909136 l 21.23972264570789 -30.88025743600951 a58.47954265170291,58.47954265170291 0 0,0 0.8244748357409029,0.5775973111521949 l -21.768128621032442 30.510075282093382" fill="red" stroke="none" /><path d="M 114.16331599549186 84.49514656593476 l 20.62626137092587 -22.579963586967974 a51.582632550690406,51.582632550690406 0 0,0 0.6504130682157205,0.6044880623296133 l -21.011882322936437 22.22157093856372" fill="red" stroke="none" /><path d="M 114.94478906791727 85.2469230424477 l 26.66263027642248 -26.320601419745802 a58.46558303769375,58.46558303769375 0 0,0 0.7008512663819454,0.7222888365721747 l -27.111745806507535 25.857748387623513" fill="red" stroke="none" /><line stroke="#e1ed5e" stroke-width="0.3" x1="172.23445277983987" x2="176.4835382374775" y1="55.19839476539836" y2="52.563006222186495" /><path d="M 173.08426987136738 54.67131705675599 a86.0,86.0 0 0,1 12.851231095245387,41.99856678651699" fill="none" id="id63" stroke="none" /><text fill="#e1ed5e" style="font-size:6.75px; font-family:Arial;" text-anchor="middle"><textPath startOffset="22.20632615414155" xlink:href="#id63">March</textPath></text><path d="M 118.03404312379186 89.2402003453031 l 25.73315456031762 -15.353383911291743 a50.96534066471976,50.96534066471976 0 0,0 0.44301094646041006,0.757249311609037 l -25.99362518124836 14.908155187328811" fill="red" stroke="none" /><path d="M 119.34039704204932 91.81776055985345 l 17.013433930912132 -7.197783469448678 a39.47335976466059,39.47335976466059 0 0,0 0.2593555996791484,0.6280501565246915 l -17.134811217477477 6.903858742470684" fill="red" stroke="none" /><path d="M 119.97218684219823 93.5106431181261 l 11.8466258810537 -3.8492020826568547 a33.456279598611346,33.456279598611346 0 0,0 0.1732469971365059,0.5492403249339262 l -11.911128361958411 3.6447115912965096" fill="red" stroke="none" /><path d="M 120.28053869075195 94.5502522615342 l 18.111028161894986 -4.866761000366603 a39.75352510104814,39.75352510104814 0 0,0 0.1718936142981508,0.6623762157090591 l -18.19211810806344 4.554288359108694" fill="red" stroke="none" /><path d="M 120.37134235888165 94.90015583598534 l 10.703439187411062 -2.6795422173544314 a32.033746278267934,32.033746278267934 0 0,0 0.12930528424591287,0.536053882259947 l -10.747977271917796 2.4949031034350786" fill="red" stroke="none" /><path d="M 120.53481517161879 95.60439243477599 l 22.3903282842993 -4.792791927844597 a43.89754692412062,43.89754692412062 0 0,0 0.15180336977305245,0.7402471428828598 l -22.46951094998735 4.406669128798325" fill="red" stroke="none" /><path d="M 120.96714384426684 98.82574320788733 l 9.867756516001625 -0.5526398921042037 a30.883219592290637,30.883219592290637 0 0,0 0.025157164445556233,0.5310279803094818 l -9.87580728868068 0.3827008051717221" fill="red" stroke="none" /><line stroke="#e1ed5e" stroke-width="0.3" x1="184.98032266829074" x2="189.97916517819016" y1="98.17113171792111" y2="98.06355123074" /><path d="M 185.9800911702706 98.14961562048488 a86.0,86.0 0 0,1 -9.607161424134198,41.387399972396054" fill="none" id="id64" stroke="none" /><text fill="#e1ed5e" style="font-size:6.75px; font-family:Arial;" text-anchor="middle"><textPath startOffset="21.466115282336823" xlink:href="#id64">April</textPath></text><path d="M 120.9904718944345 100.63252640178507 l 16.03351608608341 0.48315360840374316 a37.04079410415859,37.04079410415859 0 0,0 -0.024690100712188,0.6371417913853112 l -16.02282385252002 -0.7590726468030605" fill="red" stroke="none" /><path d="M 120.9764740272857 100.99374915477107 l 7.478120292934242 0.35427191961400123 a28.48650731039661,28.48650731039661 0 0,0 -0.027419822057723264,0.4895993424352317 l -7.470914119988989 -0.4829429783846562" fill="red" stroke="none" /><path d="M 119.41010516605496 108.01547362559984 l 17.317174378511616 7.151190233818027 a39.73563583698278,39.73563583698278 0 0,0 -0.26651072949232146,0.6299526385230516 l -17.191512667826984 -7.448217398007242" fill="red" stroke="none" /><path d="M 119.26925614724726 108.34839909993367 l 17.890759755793386 7.751165976572059 a40.49768854597602,40.49768854597602 0 0,0 -0.28263320496138095,0.6372632642008954 l -17.75468546610073 -8.057977577265643" fill="red" stroke="none" /><line stroke="#e1ed5e" stroke-width="0.3" x1="174.80103733775053" x2="179.2010983576182" y1="140.37084112569926" y2="142.7455964860345" /><path d="M 175.68104954172406 140.8457921977663 a86.0,86.0 0 0,1 -30.038265399797805,32.042727171017184" fill="none" id="id65" stroke="none" /><text fill="#e1ed5e" style="font-size:6.75px; font-family:Arial;" text-anchor="middle"><textPath startOffset="22.206326154141568" xlink:href="#id65">May</textPath></text><path d="M 117.55443506779139 111.5257021239791 l 16.386274404296 10.758723762761376 a40.60255406461853,40.60255406461853 0 0,0 -0.3886184418753157,0.5809318421609925 l -16.198652857009964 -11.039192519128175" fill="red" stroke="none" /><path d="M 116.71984013943494 112.70617746262583 l 50.159520418304794 38.11853238787748 a84.0,84.0 0 0,0 -0.8847727311277263,1.1436880235469893 l -49.495940869959 -38.97629840553772" fill="red" stroke="none" /><path d="M 115.80600337817218 113.82643327865902 l 8.460169890261215 7.4006041701443515 a32.24025874503076,32.24025874503076 0 0,0 -0.3689838511626625,0.41455726835220097 l -8.331527189450213 -7.54513560823742" fill="red" stroke="none" /><path d="M 115.32070863581623 114.36230785411682 l 28.773386904441782 26.97344166973577 a60.439502398779574,60.439502398779574 0 0,0 -0.7180599945909936,0.7528830335626298 l -28.304820358471822 -27.464731819880907" fill="red" stroke="none" /><path d="M 114.29624159901734 115.38237550388516 l 13.246552070838543 14.252937506275202 a40.458092643505,40.458092643505 0 0,0 -0.514203959726802,0.46971312555222255 l -12.999248561644878 -14.478843398414009" fill="red" stroke="none" /><path d="M 114.0293411484842 115.62618273729858 l 13.500197640599708 15.036811286355444 a41.207944724704696,41.207944724704696 0 0,0 -0.5318918351730403,0.4693327025369549 l -13.23936345252008 -15.266967130664687" fill="red" stroke="none" /><path d="M 113.20401910651253 116.32954008644616 l 23.97015677717714 29.6441282622997 a59.12273280280582,59.12273280280582 0 0,0 -0.7968688823765844,0.6330808342232235 l -23.456330402083207 -30.05234301052805" fill="red" stroke="none" /><path d="M 112.92097659922987 116.55440617244103 l 11.941569526626973 15.29958596875795 a40.4082048004106,40.4082048004106 0 0,0 -0.5519977662090048,0.4232483487367945 l -11.676443031924473 -15.502873659322118" fill="red" stroke="none" /><path d="M 111.45004920935366 117.60387380957326 l 14.529631115755697 22.338575842317322 a47.64811721347118,47.64811721347118 0 0,0 -0.6913927815783606,0.4412795853205737 l -14.142956532130405 -22.585369856461703" fill="red" stroke="none" /><path d="M 111.1453310114006 117.79835938074945 l 4.558390038342538 7.2794485885667 a29.58890513949515,29.58890513949515 0 0,0 -0.43399991591401516,0.2665981955387409 l -4.4324109224962145 -7.356835250933819" fill="red" stroke="none" /><line stroke="#e1ed5e" stroke-width="0.3" x1="143.8653032363475" x2="146.44561519142675" y1="172.8068346515853" y2="177.08958963109032" /><path d="M 144.38136562736335 173.6633856474863 a86.0,86.0 0 0,1 -40.68145358897372,12.25698825130547" fill="none" id="id66" stroke="none" /><text fill="#e1ed5e" style="font-size:6.75px; font-family:Arial;" text-anchor="middle"><textPath startOffset="21.466115282336833" xlink:href="#id66">June</textPath></text><path d="M 109.2508944713604 118.85261126421891 l 15.211040957320254 30.99893129040312 a55.52983504380535,55.52983504380535 0 0,0 -0.8617366566101383,0.4136859628232482 l -14.675191632709883 -31.25617152972593" fill="red" stroke="none" /><path d="M 108.92500713936063 119.00905698771935 l 15.526943963730941 33.070288689184245 a57.533956572465954,57.533956572465954 0 0,0 -0.900083145913452,0.413184025998368 l -14.95539282205007 -33.33265978551669" fill="red" stroke="none" /><path d="M 107.93186726928326 119.44442032107085 l 15.668599095307448 38.41047969011698 a62.48336953086572,62.48336953086572 0 0,0 -0.9993736630145532,0.39767140523532807 l -15.005104356251028 -38.67449793975838" fill="red" stroke="none" /><path d="M 107.2578585660854 119.70592522655815 l 15.105311753388808 41.012668024017145 a64.70594217741227,64.70594217741227 0 0,0 -1.0484841159046105,0.37594910068534415 l -14.397108076854462 -41.26660466574245" fill="red" stroke="none" /><path d="M 106.57524785965236 119.94407469862006 l 12.90886447324272 39.15523229299637 a62.22827910436056,62.22827910436056 0 0,0 -1.0201842013026092,0.3266307649018538 l -12.23295892684917 -39.37163590455793" fill="red" stroke="none" /><path d="M 105.88484417918355 120.15858648285463 l 10.491611802962153 35.93911026950817 a58.43919824445928,58.43919824445928 0 0,0 -0.9680559823906392,0.27358229027344244 l -9.871424652466908 -36.11438135312013" fill="red" stroke="none" /><path d="M 105.53697534728816 120.25689768951611 l 8.128731726179495 29.738779133880133 a51.82971397612864,51.82971397612864 0 0,0 -0.8626181133811173,0.22782528395798143 l -7.615623169986882 -29.874295767141696" fill="red" stroke="none" /><path d="M 104.83641907484287 120.43548508189849 l 9.348493099810312 39.500504055391765 a61.59167579525662,61.59167579525662 0 0,0 -1.033801175378825,0.2352897817485599 l -8.667171775038625 -39.655570570718005" fill="red" stroke="none" /><path d="M 104.13013068566511 120.58985236759428 l 4.0625708358410195 20.253047690037015 a41.65648620969064,41.65648620969064 0 0,0 -0.7042572222660652,0.13497257279360728 l -3.7133459990032502 -20.31997746117909" fill="red" stroke="none" /><path d="M 103.41894727170886 120.7198165907248 l 6.099769338010473 36.966379380906176 a58.466256691989095,58.466256691989095 0 0,0 -0.9943833371160495,0.15530222673132174 l -5.462550137285906 -37.0658999149846" fill="red" stroke="none" /><path d="M 103.06178313531738 120.77559828337769 l 6.289864327648283 42.679604907622796 a64.14059652266067,64.14059652266067 0 0,0 -1.0936625599517233,0.1515716653333667 l -5.554273176509729 -42.78155113844876" fill="red" stroke="none" /><path d="M 102.34483914955558 120.86867818915974 l 4.311121884734791 38.36826729194856 a59.60971000786524,59.60971000786524 0 0,0 -1.0206527926010058,0.10579483515058268 l -3.650036495528182 -38.4367914955549" fill="red" stroke="none" /><path d="M 101.62511606390274 120.93702456842531 l 4.344186641203675 55.9679055896344 a77.13624866041408,77.13624866041408 0 0,0 -1.3246763695600794,0.09135743818990377 l -3.3801475108646653 -56.03439137234059" fill="red" stroke="none" /><path d="M 100.90346689309514 120.98055641714683 l 1.7447006043072164 40.515916786164894 a61.553464626614925,61.553464626614925 0 0,0 -1.058953050167151,0.0364724841867274 l -1.0470272024654133 -40.53994606877772" fill="red" stroke="none" /><line stroke="#e1ed5e" stroke-width="0.3" x1="102.19456741930631" x2="102.32365962044197" y1="184.97166512339345" y2="189.96999836594603" /><path d="M 102.22038585953345 185.97133177190398 a86.0,86.0 0 0,1 -42.740103519485714,-10.115201625700543" fill="none" id="id67" stroke="none" /><text fill="#e1ed5e" style="font-size:6.75px; font-family:Arial;" text-anchor="middle"><textPath startOffset="22.20632615414155" xlink:href="#id67">July</textPath></text><path d="M 100.54218724476979 120.99299961872073 l 1.1838942486624073 45.8393142784612 a66.85459997766367,66.85459997766367 0 0,0 -1.1506641594299234,0.01980972701684306 l -0.394670399339816 -45.852901482757204" fill="red" stroke="none" /><path d="M 99.81925306533755 120.99922214144158 l -0.23780815254367169 27.628608095824546 a48.62963152179337,48.62963152179337 0 0,0 -0.8369861475067755,-0.014409475573831088 l 0.713353989943115 -27.620421142971555" fill="red" stroke="none" /><path d="M 99.09653310690486 120.98055641714683 l -2.350441237395683 54.58259219375258 a75.63317622653794,75.63317622653794 0 0,0 -1.300213287693593,-0.06720617540836361 l 3.289642593502765 -54.534046211582016" fill="red" stroke="none" /><path d="M 98.37488393609728 120.93702456842531 l -2.2789011071234504 29.36000051237665 a50.44831099304009,50.44831099304009 0 0,0 -0.8652021840231064,-0.07465328501844025 l 2.7839476088880986 -29.316422975079547" fill="red" stroke="none" /><path d="M 98.01472825383883 120.90594882070398 l -4.25042058259232 44.75914964183836 a65.9605110267822,65.9605110267822 0 0,0 -1.129392841736581,-0.11706618585471097 l 5.020246020934495 -44.67935408752789" fill="red" stroke="none" /><path d="M 97.2962882734958 120.8252237178851 l -3.822500069497341 29.44264298910269 a50.689741207445124,50.689741207445124 0 0,0 -0.8643117641202295,-0.11978573488032734 l 4.328740424804402 -29.372482688729757" fill="red" stroke="none" /><path d="M 96.93821686468263 120.77559828337769 l -4.828649517816045 32.76459442088255 a54.118491869812445,54.118491869812445 0 0,0 -0.9204373529281452,-0.14375338477714444 l 5.391922734352707 -32.6766227287583" fill="red" stroke="none" /><path d="M 96.58105272829116 120.7198165907248 l -4.877592710698494 29.559632933273097 a50.95935262653889,50.95935262653889 0 0,0 -0.8642488500504913,-0.15026074058498026 l 5.385690532221035 -29.471293614167113" fill="red" stroke="none" /><path d="M 95.86986931433489 120.58985236759428 l -6.839904836540761 34.098831613627056 a55.77807665164112,55.77807665164112 0 0,0 -0.9397504659236566,-0.19693384715694012 l 7.425846763893804 -33.97604178574357" fill="red" stroke="none" /><line stroke="#e1ed5e" stroke-width="0.3" x1="58.666819895761336" x2="56.23545636021788" y1="174.27360380694188" y2="178.64263932499728" /><path d="M 58.180547188652646 175.14741091055294 a86.0,86.0 0 0,1 -31.652253787137756,-30.449443065178592" fill="none" id="id68" stroke="none" /><text fill="#e1ed5e" style="font-size:6.75px; font-family:Arial;" text-anchor="middle"><textPath startOffset="22.20632615414155" xlink:href="#id68">August</textPath></text><line stroke="#e1ed5e" stroke-width="0.3" x1="26.63291911575756" x2="22.317208475507996" y1="142.92168965132927" y2="145.44649492493687" /><path d="M 25.769776987707644 143.4266507060508 a86.0,86.0 0 0,1 -11.730757126820373,-40.83630448921669" fill="none" id="id69" stroke="none" /><text fill="#e1ed5e" style="font-size:6.75px; font-family:Arial;" text-anchor="middle"><textPath startOffset="21.46611528233685" xlink:href="#id69">September</textPath></text><line stroke="#e1ed5e" stroke-width="0.3" x1="15.007084014347285" x2="10.007500721073583" y1="101.09737516637583" y2="101.16192664675087" /><path d="M 14.007167355692545 101.11028546245083 a86.0,86.0 0 0,1 10.666146001902534,-42.60595125391555" fill="none" id="id70" stroke="none" /><text fill="#e1ed5e" style="font-size:6.75px; font-family:Arial;" text-anchor="middle"><textPath startOffset="22.20632615414155" xlink:href="#id70">October</textPath></text><line stroke="#e1ed5e" stroke-width="0.3" x1="26.266209847984243" x2="21.928928074336255" y1="57.711370442889674" y2="55.22380399835377" /><path d="M 25.398753493254645 57.213857153982495 a86.0,86.0 0 0,1 29.58750427330803,-30.492523968695096" fill="none" id="id71" stroke="none" /><text fill="#e1ed5e" style="font-size:6.75px; font-family:Arial;" text-anchor="middle"><textPath startOffset="21.46611528233685" xlink:href="#id71">November</textPath></text><line stroke="#e1ed5e" stroke-width="0.3" x1="56.762969772571076" x2="54.21961505331055" y1="26.818313649435495" y2="22.513508569990535" /><path d="M 56.25429882871897 25.957352633546506 a86.0,86.0 0 0,1 42.265352541879196,-11.944610805530505" fill="none" id="id72" stroke="none" /><text fill="#e1ed5e" style="font-size:6.75px; font-family:Arial;" text-anchor="middle"><textPath startOffset="22.20632615414155" xlink:href="#id72">December</textPath></text></svg>